<svg xmlns="http://www.w3.org/2000/svg" viewBox="0 0 300 300">
  <rect width="300" height="300" fill="#fff8f0"/>
  <!-- cone -->
  <polygon points="150,280 88,160 212,160" fill="#e8a85a"/>
  <line x1="150" y1="280" x2="120" y2="160" stroke="#c4854a" stroke-width="1.5"/>
  <line x1="150" y1="280" x2="180" y2="160" stroke="#c4854a" stroke-width="1.5"/>
  <line x1="100" y1="200" x2="200" y2="200" stroke="#c4854a" stroke-width="1.5"/>
  <line x1="92" y1="235" x2="208" y2="235" stroke="#c4854a" stroke-width="1.5"/>
  <!-- strawberry scoop -->
  <ellipse cx="150" cy="155" rx="62" ry="55" fill="#f48fb1"/>
  <ellipse cx="150" cy="148" rx="62" ry="55" fill="#f06292"/>
  <!-- shine -->
  <ellipse cx="128" cy="122" rx="18" ry="14" fill="white" opacity="0.2" transform="rotate(-20 128 122)"/>
  <!-- drip -->
  <path d="M112 158 Q106 176 112 188" stroke="#e91e8c" stroke-width="6" stroke-linecap="round" fill="none"/>
  <!-- strawberry bits -->
  <ellipse cx="145" cy="132" rx="7" ry="6" fill="#e53935"/>
  <ellipse cx="162" cy="140" rx="6" ry="5" fill="#c62828"/>
  <ellipse cx="150" cy="152" rx="6" ry="5" fill="#e53935"/>
  <ellipse cx="135" cy="145" rx="5" ry="4" fill="#c62828"/>
  <text x="150" y="296" text-anchor="middle" font-family="Arial" font-size="17" font-weight="bold" fill="#ad1457">Strawberry</text>
</svg>
