<svg xmlns="http://www.w3.org/2000/svg" viewBox="0 0 300 300">
  <rect width="300" height="300" fill="#fff8f0"/>
  <!-- plate -->
  <ellipse cx="150" cy="252" rx="105" ry="16" fill="#e8d5c0"/>
  <!-- crust -->
  <path d="M55 200 L65 245 Q150 262 235 245 L245 200 Z" fill="#c4956a"/>
  <!-- cheesecake body -->
  <path d="M55 130 L55 200 Q150 218 245 200 L245 130 Q200 110 150 108 Q100 110 55 130Z" fill="#fef9f0"/>
  <!-- top surface -->
  <ellipse cx="150" cy="130" rx="95" ry="26" fill="#fef5e4"/>
  <!-- berry topping -->
  <ellipse cx="120" cy="120" rx="14" ry="12" fill="#e53935"/>
  <ellipse cx="150" cy="115" rx="15" ry="13" fill="#c62828"/>
  <ellipse cx="180" cy="120" rx="14" ry="12" fill="#e53935"/>
  <ellipse cx="135" cy="108" rx="12" ry="10" fill="#ad1457"/>
  <ellipse cx="165" cy="108" rx="12" ry="10" fill="#c62828"/>
  <!-- berry shine -->
  <ellipse cx="117" cy="117" rx="4" ry="3" fill="white" opacity="0.5"/>
  <ellipse cx="148" cy="111" rx="4" ry="3" fill="white" opacity="0.5"/>
  <ellipse cx="178" cy="117" rx="4" ry="3" fill="white" opacity="0.5"/>
  <!-- sauce drizzle -->
  <path d="M95 135 Q120 148 150 138 Q175 128 205 140" stroke="#e53935" stroke-width="3" fill="none" opacity="0.6"/>
  <text x="150" y="272" text-anchor="middle" font-family="Arial" font-size="18" font-weight="bold" fill="#8b5a2b">Berry Cheesecake</text>
</svg>
