<svg xmlns="http://www.w3.org/2000/svg" viewBox="0 0 300 300">
  <rect width="300" height="300" fill="#fff8f0"/>
  <!-- mug body -->
  <path d="M70 110 L85 230 Q150 250 215 230 L230 110 Z" fill="#e8d5b0"/>
  <path d="M70 110 L230 110 L225 128 L75 128 Z" fill="#d8c59a"/>
  <!-- foam top -->
  <ellipse cx="150" cy="120" rx="75" ry="20" fill="#f5e6c8"/>
  <!-- latte art - heart -->
  <path d="M140 112 Q138 107 143 107 Q147 107 150 112 Q153 107 157 107 Q162 107 160 112 Q156 122 150 128 Q144 122 140 112Z" fill="#8b5a2b" opacity="0.6"/>
  <!-- handle -->
  <path d="M222 148 Q260 148 260 185 Q260 222 222 222" fill="none" stroke="#d8c59a" stroke-width="14" stroke-linecap="round"/>
  <!-- saucer -->
  <ellipse cx="150" cy="238" rx="95" ry="15" fill="#e8c99a"/>
  <!-- steam -->
  <path d="M115 90 Q110 70 120 55" stroke="#ccc" stroke-width="3" fill="none" stroke-linecap="round"/>
  <path d="M185 90 Q180 70 190 55" stroke="#ccc" stroke-width="3" fill="none" stroke-linecap="round"/>
  <text x="150" y="205" text-anchor="middle" font-family="Arial" font-size="20" font-weight="bold" fill="#6b3a1f">Cappuccino</text>
</svg>
