<svg xmlns="http://www.w3.org/2000/svg" viewBox="0 0 300 300">
  <rect width="300" height="300" fill="#fff8f0"/>
  <!-- cup -->
  <path d="M75 105 L90 225 Q150 245 210 225 L225 105 Z" fill="#a8d8a8"/>
  <path d="M75 105 L225 105 L220 125 L80 125 Z" fill="#88c888"/>
  <!-- matcha liquid -->
  <ellipse cx="150" cy="130" rx="65" ry="16" fill="#5a9e5a"/>
  <!-- foam swirl -->
  <path d="M130 122 Q150 115 170 122 Q158 130 150 128 Q142 130 130 122Z" fill="#c8e8c8" opacity="0.7"/>
  <!-- handle -->
  <path d="M218 148 Q255 148 255 182 Q255 216 218 216" fill="none" stroke="#88c888" stroke-width="12" stroke-linecap="round"/>
  <!-- saucer -->
  <ellipse cx="150" cy="232" rx="90" ry="14" fill="#b8d8b8"/>
  <!-- steam -->
  <path d="M125 85 Q120 65 130 50" stroke="#9dc89d" stroke-width="3" fill="none" stroke-linecap="round"/>
  <path d="M175 85 Q170 65 180 50" stroke="#9dc89d" stroke-width="3" fill="none" stroke-linecap="round"/>
  <text x="150" y="195" text-anchor="middle" font-family="Arial" font-size="22" font-weight="bold" fill="white">Matcha</text>
  <text x="150" y="218" text-anchor="middle" font-family="Arial" font-size="15" fill="white">Latte</text>
</svg>
